<svg width="1364" height="291" viewBox="0 0 1364 291" fill="none" xmlns="http://www.w3.org/2000/svg">
<path d="M1.06573 11.99C3.69715 8.48591 8.0828 10.6759 8.0828 10.6759L68.6055 29.9482C78.7296 32.7603 83.4687 35.7168 90.534 43.5264C90.534 43.5264 183.173 227.823 187.897 237.125C192.62 246.427 194.035 249.827 205 252.455L199.299 266.472C199.299 266.472 196.737 272.047 194.475 275.232C192.928 277.411 191.988 278.605 190.09 280.488C187.489 283.067 182.634 286.182 182.634 286.182C182.634 286.182 180.061 287.973 178.248 288.81C174.588 290.498 168.161 291 168.161 291H158.074C158.074 291 150.28 290.301 146.671 288.81C143.062 287.319 140.439 285.848 137.023 283.116C132.759 279.707 127.813 272.604 127.813 272.604C114.485 260.634 1.50428 21.1881 1.50428 21.1881C1.50428 21.1881 -1.56569 15.494 1.06573 11.99Z" fill="url(#paint0_linear_10_52)"/>
<path d="M207.574 239.37C205.949 238.489 203.887 235.224 203.887 235.224L171.472 171.412C171.472 171.412 169.527 168.408 169.089 167.094C168.652 165.78 169.964 162.275 169.964 162.275L171.276 159.647L207.574 97.8845L208.886 94.3802V89.5618L204.513 85.6195L181.334 68.9742C181.334 68.9742 180.344 67.7279 180.022 66.7841C179.525 65.3272 180.022 62.8418 180.022 62.8418C180.022 62.8418 180.901 61.0858 181.772 60.2135C182.643 59.3413 184.396 58.4614 184.396 58.4614L325.214 1.07893L327.838 0.202862C327.838 0.202862 331.789 -0.472332 333.086 0.640893C334.282 1.66726 333.961 4.5832 333.961 4.5832L333.086 8.08748C333.086 8.08748 215.196 236.944 214.571 237.617C213.946 238.291 213.508 238.854 212.384 239.37C210.677 240.154 209.226 240.265 207.574 239.37Z" fill="url(#paint1_linear_10_52)"/>
<path d="M502.74 90.06L453.069 232.223H408.671L359 90.06H400.624L430.13 191.777H431.61L461.024 90.06H502.74Z" fill="black"/>
<path d="M583.073 235C568.459 235 555.879 232.038 545.335 226.115C534.852 220.13 526.774 211.676 521.101 200.755C515.427 189.772 512.591 176.783 512.591 161.79C512.591 147.166 515.427 134.332 521.101 123.287C526.774 112.242 534.759 103.635 545.057 97.4643C555.417 91.294 567.565 88.2089 581.501 88.2089C590.874 88.2089 599.599 89.7206 607.677 92.7441C615.817 95.7058 622.909 100.179 628.952 106.164C635.057 112.15 639.805 119.677 643.196 128.748C646.588 137.756 648.284 148.307 648.284 160.401V171.23H528.315V146.796H611.192C611.192 141.119 609.959 136.09 607.492 131.709C605.026 127.329 601.604 123.904 597.225 121.436C592.909 118.906 587.883 117.641 582.148 117.641C576.167 117.641 570.864 119.029 566.239 121.806C561.676 124.521 558.099 128.192 555.509 132.82C552.919 137.386 551.594 142.477 551.532 148.092V171.323C551.532 178.357 552.827 184.435 555.417 189.556C558.068 194.677 561.799 198.626 566.609 201.403C571.419 204.179 577.123 205.568 583.721 205.568C588.099 205.568 592.107 204.951 595.745 203.717C599.384 202.483 602.498 200.632 605.088 198.163C607.677 195.695 609.651 192.672 611.007 189.093L647.451 191.499C645.601 200.261 641.809 207.912 636.074 214.453C630.401 220.932 623.063 225.991 614.06 229.632C605.118 233.211 594.79 235 583.073 235Z" fill="black"/>
<path d="M673.998 232.223V90.06H712.199V114.865H713.679C716.269 106.041 720.616 99.3771 726.721 94.8728C732.825 90.3068 739.855 88.0238 747.81 88.0238C749.783 88.0238 751.911 88.1472 754.192 88.394C756.474 88.6408 758.478 88.9802 760.205 89.4121V124.398C758.355 123.842 755.796 123.349 752.527 122.917C749.259 122.485 746.268 122.269 743.555 122.269C737.759 122.269 732.579 123.534 728.016 126.064C723.514 128.532 719.938 131.987 717.286 136.43C714.696 140.872 713.401 145.994 713.401 151.794V232.223H673.998Z" fill="black"/>
<path d="M863.269 90.06V119.677H777.71V90.06H863.269ZM797.134 56H836.537V188.538C836.537 192.178 837.092 195.017 838.202 197.053C839.312 199.027 840.854 200.416 842.827 201.218C844.862 202.02 847.205 202.421 849.857 202.421C851.707 202.421 853.557 202.267 855.407 201.958C857.257 201.588 858.675 201.31 859.662 201.125L865.859 230.465C863.886 231.082 861.111 231.791 857.534 232.594C853.958 233.457 849.61 233.982 844.492 234.167C834.996 234.537 826.671 233.272 819.518 230.372C812.427 227.472 806.908 222.968 802.961 216.859C799.015 210.751 797.072 203.038 797.134 193.721V56Z" fill="black"/>
<path d="M888.937 232.223V90.06H927.138V114.865H928.618C931.208 106.041 935.555 99.3771 941.66 94.8728C947.765 90.3068 954.794 88.0238 962.749 88.0238C964.722 88.0238 966.85 88.1472 969.131 88.394C971.413 88.6408 973.417 88.9802 975.144 89.4121V124.398C973.294 123.842 970.735 123.349 967.467 122.917C964.198 122.485 961.208 122.269 958.494 122.269C952.698 122.269 947.518 123.534 942.955 126.064C938.453 128.532 934.877 131.987 932.225 136.43C929.635 140.872 928.34 145.994 928.34 151.794V232.223H888.937Z" fill="black"/>
<path d="M1086.63 171.693V90.06H1126.03V232.223H1088.2V206.401H1086.72C1083.51 214.731 1078.18 221.425 1070.72 226.485C1063.32 231.545 1054.28 234.074 1043.61 234.074C1034.12 234.074 1025.76 231.915 1018.55 227.596C1011.33 223.276 1005.69 217.137 1001.62 209.177C997.613 201.218 995.578 191.685 995.516 180.578V90.06H1034.92V173.544C1034.98 181.936 1037.23 188.569 1041.67 193.443C1046.11 198.318 1052.06 200.755 1059.52 200.755C1064.27 200.755 1068.71 199.675 1072.84 197.516C1076.97 195.294 1080.3 192.024 1082.83 187.705C1085.42 183.386 1086.69 178.048 1086.63 171.693Z" fill="black"/>
<path d="M1157.55 232.223V90.06H1195.1V115.142H1196.77C1199.73 106.812 1204.66 100.241 1211.57 95.4281C1218.47 90.6153 1226.73 88.2089 1236.35 88.2089C1246.1 88.2089 1254.39 90.6462 1261.24 95.5207C1268.08 100.334 1272.64 106.874 1274.93 115.142H1276.41C1279.3 106.997 1284.55 100.488 1292.13 95.6132C1299.78 90.677 1308.81 88.2089 1319.23 88.2089C1332.49 88.2089 1343.25 92.4355 1351.51 100.889C1359.84 109.28 1364 121.189 1364 136.615V232.223H1324.69V144.389C1324.69 136.491 1322.59 130.568 1318.4 126.619C1314.21 122.67 1308.96 120.695 1302.67 120.695C1295.52 120.695 1289.94 122.978 1285.93 127.544C1281.92 132.049 1279.92 138.003 1279.92 145.407V232.223H1241.72V143.556C1241.72 136.584 1239.72 131.031 1235.71 126.897C1231.76 122.763 1226.55 120.695 1220.08 120.695C1215.7 120.695 1211.75 121.806 1208.24 124.027C1204.78 126.187 1202.04 129.241 1200 133.19C1197.97 137.078 1196.95 141.644 1196.95 146.888V232.223H1157.55Z" fill="black"/>
<defs>
<linearGradient id="paint0_linear_10_52" x1="53.067" y1="10.0351" x2="189.621" y2="279.551" gradientUnits="userSpaceOnUse">
<stop stop-color="#57EEE0"/>
<stop offset="0.0848658" stop-color="#5ACCDD"/>
<stop offset="0.275361" stop-color="#00C0E8"/>
<stop offset="0.582038" stop-color="#45AADE"/>
<stop offset="0.939783" stop-color="#7C3AED"/>
</linearGradient>
<linearGradient id="paint1_linear_10_52" x1="312.344" y1="-13.5791" x2="367.562" y2="60.8012" gradientUnits="userSpaceOnUse">
<stop offset="0.175338" stop-color="#F59E0B"/>
<stop offset="0.414508" stop-color="#EC4899"/>
<stop offset="0.619604" stop-color="#BD42BC"/>
<stop offset="0.913826" stop-color="#7C3AED"/>
</linearGradient>
</defs>
</svg>
