<svg width="1352" height="291" viewBox="0 0 1352 291" fill="none" xmlns="http://www.w3.org/2000/svg">
<rect width="1352" height="291" fill="#F5F5F5"/>
<path d="M1.06572 11.99C3.69714 8.48591 8.08279 10.6759 8.08279 10.6759L68.6055 29.9482C78.7296 32.7603 83.4687 35.7168 90.534 43.5264C90.534 43.5264 183.173 227.823 187.897 237.125C192.62 246.427 194.035 249.827 205 252.455L199.299 266.472C199.299 266.472 196.737 272.047 194.475 275.232C192.928 277.411 191.988 278.605 190.089 280.488C187.489 283.067 182.634 286.182 182.634 286.182C182.634 286.182 180.061 287.973 178.248 288.81C174.588 290.498 168.161 291 168.161 291H158.074C158.074 291 150.28 290.301 146.671 288.81C143.062 287.319 140.439 285.848 137.023 283.116C132.759 279.707 127.813 272.604 127.813 272.604C114.485 260.634 1.50427 21.1881 1.50427 21.1881C1.50427 21.1881 -1.5657 15.494 1.06572 11.99Z" fill="url(#paint0_linear_0_1)"/>
<path d="M207.574 239.37C205.949 238.489 203.887 235.224 203.887 235.224L171.472 171.412C171.472 171.412 169.527 168.408 169.089 167.094C168.652 165.78 169.964 162.275 169.964 162.275L171.276 159.647L207.574 97.8845L208.886 94.3802V89.5618L204.513 85.6195L181.334 68.9742C181.334 68.9742 180.344 67.7279 180.022 66.7841C179.525 65.3272 180.022 62.8418 180.022 62.8418C180.022 62.8418 180.901 61.0858 181.772 60.2135C182.643 59.3413 184.396 58.4614 184.396 58.4614L325.214 1.07893L327.838 0.202862C327.838 0.202862 331.789 -0.472332 333.086 0.640893C334.282 1.66726 333.961 4.5832 333.961 4.5832L333.086 8.08748C333.086 8.08748 215.196 236.944 214.571 237.617C213.946 238.291 213.508 238.854 212.384 239.37C210.677 240.154 209.226 240.265 207.574 239.37Z" fill="url(#paint1_linear_0_1)"/>
<path d="M474.473 106.225L419.842 257.047H388.456L333.727 106.225H365.211L403.364 222.287H404.934L442.989 106.225H474.473Z" fill="black"/>
<path d="M561.838 260.091C546.995 260.091 534.212 256.916 523.488 250.566C512.83 244.151 504.591 235.15 498.772 223.564C493.018 211.912 490.141 198.263 490.141 182.618C490.141 167.169 493.018 153.553 498.772 141.771C504.591 129.988 512.699 120.79 523.096 114.179C533.558 107.567 545.785 104.261 559.778 104.261C568.278 104.261 576.517 105.669 584.494 108.484C592.471 111.299 599.631 115.717 605.974 121.74C612.316 127.762 617.318 135.584 620.98 145.207C624.642 154.764 626.472 166.384 626.472 180.065V190.473H506.716V168.479H597.735C597.735 160.754 596.166 153.914 593.027 147.957C589.889 141.934 585.475 137.188 579.786 133.719C574.163 130.249 567.559 128.515 559.974 128.515C551.735 128.515 544.543 130.544 538.396 134.603C532.315 138.596 527.608 143.833 524.273 150.313C521.003 156.728 519.369 163.7 519.369 171.228V188.411C519.369 198.492 521.134 207.068 524.665 214.137C528.261 221.207 533.264 226.608 539.671 230.339C546.079 234.005 553.566 235.838 562.132 235.838C567.69 235.838 572.757 235.052 577.334 233.481C581.911 231.845 585.867 229.423 589.202 226.215C592.537 223.007 595.087 219.047 596.852 214.334L624.609 219.342C622.386 227.524 618.397 234.692 612.643 240.845C606.955 246.933 599.795 251.679 591.164 255.083C582.598 258.422 572.823 260.091 561.838 260.091Z" fill="black"/>
<path d="M659.011 257.047V106.225H687.356V130.184H688.925C691.671 122.067 696.51 115.684 703.441 111.037C710.437 106.323 718.349 103.967 727.176 103.967C729.007 103.967 731.165 104.032 733.65 104.163C736.2 104.294 738.194 104.458 739.633 104.654V132.737C738.456 132.41 736.363 132.05 733.356 131.657C730.348 131.199 727.34 130.969 724.332 130.969C717.401 130.969 711.222 132.442 705.795 135.388C700.433 138.268 696.183 142.294 693.044 147.466C689.906 152.572 688.337 158.398 688.337 164.944V257.047H659.011Z" fill="black"/>
<path d="M844.235 106.225V129.791H761.946V106.225H844.235ZM784.014 70.0909H813.34V212.763C813.34 218.458 814.19 222.746 815.89 225.626C817.59 228.441 819.781 230.372 822.461 231.419C825.208 232.401 828.183 232.892 831.387 232.892C833.741 232.892 835.8 232.728 837.566 232.401C839.331 232.074 840.704 231.812 841.685 231.615L846.982 255.869C845.281 256.523 842.862 257.178 839.724 257.833C836.585 258.553 832.662 258.945 827.954 259.011C820.238 259.142 813.046 257.767 806.376 254.887C799.707 252.007 794.312 247.555 790.193 241.533C786.074 235.51 784.014 227.95 784.014 218.851V70.0909Z" fill="black"/>
<path d="M876.675 257.047V106.225H905.021V130.184H906.59C909.336 122.067 914.175 115.684 921.106 111.037C928.102 106.323 936.014 103.967 944.841 103.967C946.672 103.967 948.83 104.032 951.314 104.163C953.865 104.294 955.859 104.458 957.297 104.654V132.737C956.12 132.41 954.028 132.05 951.02 131.657C948.012 131.199 945.005 130.969 941.997 130.969C935.066 130.969 928.887 132.442 923.46 135.388C918.098 138.268 913.848 142.294 910.709 147.466C907.571 152.572 906.001 158.398 906.001 164.944V257.047H876.675Z" fill="black"/>
<path d="M1078.11 194.499V106.225H1107.53V257.047H1078.7V230.928H1077.13C1073.66 238.98 1068.1 245.69 1060.45 251.057C1052.87 256.36 1043.42 259.011 1032.11 259.011C1022.43 259.011 1013.87 256.883 1006.41 252.628C999.022 248.308 993.203 241.926 988.953 233.481C984.768 225.037 982.676 214.596 982.676 202.158V106.225H1012V198.623C1012 208.901 1014.85 217.083 1020.53 223.171C1026.22 229.259 1033.61 232.303 1042.7 232.303C1048.19 232.303 1053.65 230.928 1059.08 228.179C1064.57 225.429 1069.12 221.273 1072.71 215.709C1076.37 210.144 1078.17 203.075 1078.11 194.499Z" fill="black"/>
<path d="M1146.94 257.047V106.225H1175.08V130.773H1176.95C1180.09 122.46 1185.22 115.979 1192.35 111.331C1199.47 106.618 1208.01 104.261 1217.95 104.261C1228.02 104.261 1236.45 106.618 1243.25 111.331C1250.12 116.044 1255.18 122.525 1258.45 130.773H1260.02C1263.62 122.721 1269.34 116.306 1277.19 111.528C1285.03 106.684 1294.38 104.261 1305.24 104.261C1318.9 104.261 1330.05 108.549 1338.68 117.125C1347.38 125.7 1351.73 138.628 1351.73 155.91V257.047H1322.4V158.659C1322.4 148.448 1319.62 141.05 1314.06 136.468C1308.51 131.886 1301.87 129.595 1294.15 129.595C1284.61 129.595 1277.19 132.541 1271.89 138.432C1266.59 144.258 1263.95 151.753 1263.95 160.918V257.047H1234.72V156.794C1234.72 148.611 1232.17 142.032 1227.07 137.057C1221.97 132.082 1215.33 129.595 1207.16 129.595C1201.6 129.595 1196.47 131.068 1191.76 134.013C1187.12 136.894 1183.36 140.92 1180.48 146.091C1177.67 151.262 1176.26 157.252 1176.26 164.06V257.047H1146.94Z" fill="black"/>
<defs>
<linearGradient id="paint0_linear_0_1" x1="53.067" y1="10.0351" x2="189.621" y2="279.551" gradientUnits="userSpaceOnUse">
<stop stop-color="#57EEE0"/>
<stop offset="0.0848658" stop-color="#5ACCDD"/>
<stop offset="0.275361" stop-color="#00C0E8"/>
<stop offset="0.582038" stop-color="#45AADE"/>
<stop offset="0.939783" stop-color="#7C3AED"/>
</linearGradient>
<linearGradient id="paint1_linear_0_1" x1="312.344" y1="-13.5791" x2="367.562" y2="60.8012" gradientUnits="userSpaceOnUse">
<stop offset="0.175338" stop-color="#F59E0B"/>
<stop offset="0.414508" stop-color="#EC4899"/>
<stop offset="0.619604" stop-color="#BD42BC"/>
<stop offset="0.913826" stop-color="#7C3AED"/>
</linearGradient>
</defs>
</svg>
