<svg width="1018" height="553" viewBox="0 0 1018 553" fill="none" xmlns="http://www.w3.org/2000/svg">
<rect width="1018" height="553" fill="#F5F5F5"/>
<path d="M341.066 11.99C343.697 8.48591 348.083 10.6759 348.083 10.6759L408.605 29.9482C418.73 32.7603 423.469 35.7168 430.534 43.5264C430.534 43.5264 523.173 227.823 527.897 237.125C532.62 246.427 534.035 249.827 545 252.455L539.299 266.472C539.299 266.472 536.737 272.047 534.475 275.232C532.928 277.411 531.988 278.605 530.089 280.488C527.489 283.067 522.634 286.182 522.634 286.182C522.634 286.182 520.061 287.973 518.248 288.81C514.588 290.498 508.161 291 508.161 291H498.074C498.074 291 490.28 290.301 486.671 288.81C483.062 287.319 480.439 285.848 477.023 283.116C472.759 279.707 467.813 272.604 467.813 272.604C454.485 260.634 341.504 21.1881 341.504 21.1881C341.504 21.1881 338.434 15.494 341.066 11.99Z" fill="url(#paint0_linear_0_1)"/>
<path d="M547.574 239.37C545.949 238.489 543.887 235.224 543.887 235.224L511.472 171.412C511.472 171.412 509.527 168.408 509.089 167.094C508.652 165.78 509.964 162.275 509.964 162.275L511.276 159.647L547.574 97.8845L548.886 94.3802V89.5618L544.513 85.6195L521.334 68.9742C521.334 68.9742 520.344 67.7279 520.022 66.7841C519.525 65.3272 520.022 62.8418 520.022 62.8418C520.022 62.8418 520.901 61.0858 521.772 60.2135C522.643 59.3413 524.396 58.4614 524.396 58.4614L665.214 1.07893L667.838 0.202862C667.838 0.202862 671.789 -0.472332 673.086 0.640893C674.282 1.66726 673.961 4.5832 673.961 4.5832L673.086 8.08748C673.086 8.08748 555.196 236.944 554.571 237.617C553.946 238.291 553.508 238.854 552.384 239.37C550.677 240.154 549.226 240.265 547.574 239.37Z" fill="url(#paint1_linear_0_1)"/>
<path d="M140.745 399.134L86.1145 549.956H54.7288L0 399.134H31.4838L69.637 515.196H71.2063L109.261 399.134H140.745Z" fill="black"/>
<path d="M228.11 553C213.267 553 200.484 549.825 189.761 543.475C179.103 537.06 170.864 528.059 165.045 516.473C159.291 504.821 156.414 491.172 156.414 475.527C156.414 460.078 159.291 446.463 165.045 434.68C170.864 422.897 178.972 413.699 189.369 407.088C199.83 400.476 212.058 397.171 226.051 397.171C234.551 397.171 242.79 398.578 250.767 401.393C258.744 404.208 265.904 408.626 272.246 414.649C278.589 420.671 283.591 428.494 287.253 438.116C290.914 447.674 292.745 459.293 292.745 472.974V483.382H172.989V461.388H264.008C264.008 453.663 262.438 446.823 259.3 440.866C256.161 434.843 251.748 430.097 246.059 426.628C240.436 423.158 233.832 421.424 226.247 421.424C218.008 421.424 210.815 423.453 204.669 427.512C198.588 431.505 193.88 436.742 190.546 443.222C187.276 449.637 185.641 456.609 185.641 464.137V481.32C185.641 491.401 187.407 499.977 190.938 507.047C194.534 514.116 199.536 519.517 205.944 523.248C212.352 526.914 219.839 528.747 228.405 528.747C233.962 528.747 239.03 527.961 243.607 526.39C248.184 524.754 252.14 522.332 255.475 519.124C258.809 515.916 261.36 511.956 263.125 507.243L290.882 512.251C288.659 520.433 284.67 527.601 278.916 533.755C273.227 539.842 266.067 544.588 257.436 547.992C248.871 551.331 239.095 553 228.11 553Z" fill="black"/>
<path d="M325.283 549.956V399.134H353.629V423.093H355.198C357.944 414.976 362.783 408.593 369.714 403.946C376.71 399.233 384.622 396.876 393.449 396.876C395.28 396.876 397.438 396.941 399.922 397.072C402.473 397.203 404.467 397.367 405.905 397.563V425.646C404.728 425.319 402.636 424.959 399.628 424.566C396.62 424.108 393.613 423.879 390.605 423.879C383.674 423.879 377.495 425.351 372.068 428.297C366.706 431.177 362.456 435.203 359.317 440.375C356.179 445.481 354.609 451.307 354.609 457.853V549.956H325.283Z" fill="black"/>
<path d="M510.508 399.134V422.7H428.219V399.134H510.508ZM450.287 363H479.613V505.672C479.613 511.367 480.463 515.655 482.163 518.535C483.863 521.35 486.053 523.281 488.734 524.328C491.48 525.31 494.456 525.801 497.659 525.801C500.013 525.801 502.073 525.637 503.839 525.31C505.604 524.983 506.977 524.721 507.958 524.525L513.254 548.778C511.554 549.432 509.135 550.087 505.996 550.742C502.858 551.462 498.935 551.854 494.227 551.92C486.511 552.051 479.318 550.676 472.649 547.796C465.98 544.916 460.585 540.464 456.466 534.442C452.346 528.419 450.287 520.859 450.287 511.76V363Z" fill="black"/>
<path d="M542.948 549.956V399.134H571.293V423.093H572.863C575.609 414.976 580.447 408.593 587.378 403.946C594.375 399.233 602.287 396.876 611.114 396.876C612.945 396.876 615.102 396.941 617.587 397.072C620.137 397.203 622.132 397.367 623.57 397.563V425.646C622.393 425.319 620.301 424.959 617.293 424.566C614.285 424.108 611.277 423.879 608.27 423.879C601.339 423.879 595.159 425.351 589.732 428.297C584.371 431.177 580.12 435.203 576.982 440.375C573.843 445.481 572.274 451.307 572.274 457.853V549.956H542.948Z" fill="black"/>
<path d="M744.381 487.408V399.134H773.805V549.956H744.969V523.837H743.4C739.934 531.889 734.376 538.599 726.726 543.966C719.141 549.269 709.693 551.92 698.381 551.92C688.704 551.92 680.138 549.792 672.684 545.537C665.295 541.217 659.476 534.835 655.225 526.39C651.041 517.946 648.948 507.505 648.948 495.067V399.134H678.274V491.532C678.274 501.81 681.119 509.992 686.807 516.08C692.496 522.168 699.885 525.212 708.973 525.212C714.466 525.212 719.926 523.837 725.353 521.088C730.845 518.338 735.39 514.182 738.986 508.618C742.648 503.053 744.446 495.984 744.381 487.408Z" fill="black"/>
<path d="M813.208 549.956V399.134H841.357V423.682H843.221C846.359 415.369 851.492 408.888 858.619 404.24C865.747 399.527 874.28 397.171 884.218 397.171C894.288 397.171 902.723 399.527 909.523 404.24C916.389 408.953 921.456 415.434 924.726 423.682H926.295C929.891 415.63 935.613 409.215 943.459 404.437C951.305 399.593 960.656 397.171 971.51 397.171C985.176 397.171 996.324 401.458 1004.96 410.034C1013.65 418.609 1018 431.537 1018 448.819V549.956H988.674V451.568C988.674 441.357 985.895 433.96 980.337 429.377C974.779 424.795 968.143 422.504 960.427 422.504C950.88 422.504 943.459 425.45 938.163 431.341C932.866 437.167 930.218 444.662 930.218 453.827V549.956H900.99V449.703C900.99 441.52 898.44 434.941 893.34 429.966C888.24 424.991 881.603 422.504 873.43 422.504C867.872 422.504 862.739 423.977 858.031 426.922C853.389 429.803 849.629 433.829 846.752 439C843.94 444.171 842.534 450.161 842.534 456.969V549.956H813.208Z" fill="black"/>
<defs>
<linearGradient id="paint0_linear_0_1" x1="393.067" y1="10.0351" x2="529.621" y2="279.551" gradientUnits="userSpaceOnUse">
<stop stop-color="#57EEE0"/>
<stop offset="0.0848658" stop-color="#5ACCDD"/>
<stop offset="0.275361" stop-color="#00C0E8"/>
<stop offset="0.582038" stop-color="#45AADE"/>
<stop offset="0.939783" stop-color="#7C3AED"/>
</linearGradient>
<linearGradient id="paint1_linear_0_1" x1="652.344" y1="-13.5791" x2="707.562" y2="60.8012" gradientUnits="userSpaceOnUse">
<stop offset="0.175338" stop-color="#F59E0B"/>
<stop offset="0.414508" stop-color="#EC4899"/>
<stop offset="0.619604" stop-color="#BD42BC"/>
<stop offset="0.913826" stop-color="#7C3AED"/>
</linearGradient>
</defs>
</svg>
