<svg width="1005" height="557" viewBox="0 0 1005 557" fill="none" xmlns="http://www.w3.org/2000/svg">
<path d="M334.066 11.99C336.697 8.48591 341.083 10.6759 341.083 10.6759L401.605 29.9482C411.73 32.7603 416.469 35.7168 423.534 43.5264C423.534 43.5264 516.173 227.823 520.897 237.125C525.62 246.427 527.035 249.827 538 252.455L532.299 266.472C532.299 266.472 529.737 272.047 527.475 275.232C525.928 277.411 524.988 278.605 523.089 280.488C520.489 283.067 515.634 286.182 515.634 286.182C515.634 286.182 513.061 287.973 511.248 288.81C507.588 290.498 501.161 291 501.161 291H491.074C491.074 291 483.28 290.301 479.671 288.81C476.062 287.319 473.439 285.848 470.023 283.116C465.759 279.707 460.813 272.604 460.813 272.604C447.485 260.634 334.504 21.1881 334.504 21.1881C334.504 21.1881 331.434 15.494 334.066 11.99Z" fill="url(#paint0_linear_10_51)"/>
<path d="M540.574 239.37C538.949 238.489 536.887 235.224 536.887 235.224L504.472 171.412C504.472 171.412 502.527 168.408 502.089 167.094C501.652 165.78 502.964 162.275 502.964 162.275L504.276 159.647L540.574 97.8845L541.886 94.3802V89.5618L537.513 85.6195L514.334 68.9742C514.334 68.9742 513.344 67.7279 513.022 66.7841C512.525 65.3272 513.022 62.8418 513.022 62.8418C513.022 62.8418 513.901 61.0858 514.772 60.2135C515.642 59.3413 517.396 58.4614 517.396 58.4614L658.214 1.07893L660.838 0.202862C660.838 0.202862 664.789 -0.472332 666.086 0.640893C667.282 1.66726 666.961 4.5832 666.961 4.5832L666.086 8.08748C666.086 8.08748 548.196 236.944 547.571 237.617C546.946 238.291 546.508 238.854 545.384 239.37C543.677 240.154 542.226 240.265 540.574 239.37Z" fill="url(#paint1_linear_10_51)"/>
<path d="M143.74 412.06L94.0692 554.223H49.6707L0 412.06H41.6235L71.13 513.777H72.6099L102.024 412.06H143.74Z" fill="black"/>
<path d="M224.073 557C209.459 557 196.879 554.038 186.335 548.115C175.852 542.13 167.774 533.676 162.101 522.755C156.427 511.772 153.591 498.783 153.591 483.79C153.591 469.166 156.427 456.332 162.101 445.287C167.774 434.242 175.759 425.635 186.057 419.464C196.417 413.294 208.565 410.209 222.501 410.209C231.874 410.209 240.599 411.721 248.677 414.744C256.817 417.706 263.909 422.179 269.952 428.164C276.056 434.15 280.805 441.677 284.196 450.748C287.588 459.756 289.284 470.307 289.284 482.401V493.23H169.315V468.796H252.192C252.192 463.119 250.959 458.09 248.492 453.709C246.026 449.329 242.603 445.904 238.225 443.436C233.909 440.906 228.883 439.641 223.148 439.641C217.167 439.641 211.864 441.029 207.239 443.806C202.676 446.521 199.099 450.192 196.509 454.82C193.919 459.386 192.594 464.477 192.532 470.092V493.323C192.532 500.357 193.827 506.435 196.417 511.556C199.068 516.677 202.799 520.626 207.609 523.403C212.419 526.179 218.123 527.568 224.721 527.568C229.099 527.568 233.107 526.951 236.745 525.717C240.384 524.483 243.498 522.632 246.088 520.163C248.677 517.695 250.651 514.672 252.007 511.093L288.451 513.5C286.601 522.261 282.809 529.912 277.074 536.453C271.401 542.932 264.063 547.991 255.06 551.632C246.118 555.211 235.79 557 224.073 557Z" fill="black"/>
<path d="M314.998 554.223V412.06H353.199V436.865H354.679C357.269 428.041 361.616 421.377 367.721 416.873C373.825 412.307 380.855 410.024 388.81 410.024C390.783 410.024 392.911 410.147 395.192 410.394C397.474 410.641 399.478 410.98 401.205 411.412V446.398C399.355 445.842 396.796 445.349 393.527 444.917C390.259 444.485 387.268 444.269 384.555 444.269C378.759 444.269 373.579 445.534 369.016 448.064C364.514 450.532 360.938 453.987 358.286 458.43C355.696 462.872 354.401 467.994 354.401 473.794V554.223H314.998Z" fill="black"/>
<path d="M504.269 412.06V441.677H418.71V412.06H504.269ZM438.134 378H477.537V510.538C477.537 514.178 478.092 517.017 479.202 519.053C480.312 521.027 481.854 522.416 483.827 523.218C485.862 524.02 488.205 524.421 490.857 524.421C492.707 524.421 494.557 524.267 496.407 523.958C498.257 523.588 499.675 523.31 500.662 523.125L506.859 552.465C504.886 553.082 502.111 553.791 498.534 554.594C494.958 555.457 490.61 555.982 485.492 556.167C475.996 556.537 467.671 555.272 460.518 552.372C453.427 549.472 447.908 544.968 443.961 538.859C440.015 532.751 438.072 525.038 438.134 515.721V378Z" fill="black"/>
<path d="M529.937 554.223V412.06H568.138V436.865H569.618C572.208 428.041 576.555 421.377 582.66 416.873C588.765 412.307 595.794 410.024 603.749 410.024C605.722 410.024 607.85 410.147 610.131 410.394C612.413 410.641 614.417 410.98 616.144 411.412V446.398C614.294 445.842 611.735 445.349 608.467 444.917C605.198 444.485 602.208 444.269 599.494 444.269C593.698 444.269 588.518 445.534 583.955 448.064C579.453 450.532 575.877 453.987 573.225 458.43C570.635 462.872 569.34 467.994 569.34 473.794V554.223H529.937Z" fill="black"/>
<path d="M727.625 493.693V412.06H767.029V554.223H729.198V528.401H727.718C724.511 536.731 719.177 543.425 711.716 548.485C704.316 553.545 695.282 556.074 684.614 556.074C675.118 556.074 666.763 553.915 659.548 549.596C652.333 545.276 646.691 539.137 642.621 531.177C638.613 523.218 636.578 513.685 636.516 502.578V412.06H675.92V495.544C675.981 503.936 678.232 510.569 682.672 515.443C687.112 520.318 693.062 522.755 700.524 522.755C705.272 522.755 709.712 521.675 713.843 519.516C717.975 517.294 721.305 514.024 723.833 509.705C726.423 505.386 727.687 500.048 727.625 493.693Z" fill="black"/>
<path d="M798.547 554.223V412.06H836.101V437.142H837.766C840.726 428.812 845.659 422.241 852.565 417.428C859.472 412.615 867.735 410.209 877.355 410.209C887.098 410.209 895.391 412.646 902.236 417.521C909.081 422.334 913.644 428.874 915.926 437.142H917.406C920.304 428.997 925.545 422.488 933.13 417.613C940.776 412.677 949.81 410.209 960.232 410.209C973.489 410.209 984.25 414.436 992.513 422.889C1000.84 431.28 1005 443.189 1005 458.615V554.223H965.689V466.389C965.689 458.491 963.592 452.568 959.399 448.619C955.206 444.67 949.964 442.695 943.675 442.695C936.522 442.695 930.941 444.978 926.933 449.544C922.924 454.049 920.92 460.003 920.92 467.407V554.223H882.719V465.556C882.719 458.584 880.715 453.031 876.707 448.897C872.761 444.762 867.55 442.695 861.075 442.695C856.697 442.695 852.75 443.806 849.235 446.027C845.782 448.187 843.038 451.241 841.003 455.19C838.968 459.078 837.951 463.644 837.951 468.888V554.223H798.547Z" fill="black"/>
<defs>
<linearGradient id="paint0_linear_10_51" x1="386.067" y1="10.0351" x2="522.621" y2="279.551" gradientUnits="userSpaceOnUse">
<stop stop-color="#57EEE0"/>
<stop offset="0.0848658" stop-color="#5ACCDD"/>
<stop offset="0.275361" stop-color="#00C0E8"/>
<stop offset="0.582038" stop-color="#45AADE"/>
<stop offset="0.939783" stop-color="#7C3AED"/>
</linearGradient>
<linearGradient id="paint1_linear_10_51" x1="645.344" y1="-13.5791" x2="700.562" y2="60.8012" gradientUnits="userSpaceOnUse">
<stop offset="0.175338" stop-color="#F59E0B"/>
<stop offset="0.414508" stop-color="#EC4899"/>
<stop offset="0.619604" stop-color="#BD42BC"/>
<stop offset="0.913826" stop-color="#7C3AED"/>
</linearGradient>
</defs>
</svg>
