<svg width="334" height="291" viewBox="0 0 334 291" fill="none" xmlns="http://www.w3.org/2000/svg">
<path d="M1.06572 11.99C3.69714 8.48591 8.08279 10.6759 8.08279 10.6759L68.6055 29.9482C78.7296 32.7603 83.4687 35.7168 90.534 43.5264C90.534 43.5264 183.173 227.823 187.897 237.125C192.62 246.427 194.035 249.827 205 252.455L199.299 266.472C199.299 266.472 196.737 272.047 194.475 275.232C192.928 277.411 191.988 278.605 190.089 280.488C187.489 283.067 182.634 286.182 182.634 286.182C182.634 286.182 180.061 287.973 178.248 288.81C174.588 290.498 168.161 291 168.161 291H158.074C158.074 291 150.28 290.301 146.671 288.81C143.062 287.319 140.439 285.848 137.023 283.116C132.759 279.707 127.813 272.604 127.813 272.604C114.485 260.634 1.50427 21.1881 1.50427 21.1881C1.50427 21.1881 -1.5657 15.494 1.06572 11.99Z" fill="url(#paint0_linear_10_53)"/>
<path d="M207.574 239.37C205.949 238.489 203.887 235.224 203.887 235.224L171.472 171.412C171.472 171.412 169.527 168.408 169.089 167.094C168.652 165.78 169.964 162.275 169.964 162.275L171.276 159.647L207.574 97.8845L208.886 94.3802V89.5618L204.513 85.6195L181.334 68.9742C181.334 68.9742 180.344 67.7279 180.022 66.7841C179.525 65.3272 180.022 62.8418 180.022 62.8418C180.022 62.8418 180.901 61.0858 181.772 60.2135C182.643 59.3413 184.396 58.4614 184.396 58.4614L325.214 1.07893L327.838 0.202862C327.838 0.202862 331.789 -0.472332 333.086 0.640893C334.282 1.66726 333.961 4.5832 333.961 4.5832L333.086 8.08748C333.086 8.08748 215.196 236.944 214.571 237.617C213.946 238.291 213.508 238.854 212.384 239.37C210.677 240.154 209.226 240.265 207.574 239.37Z" fill="url(#paint1_linear_10_53)"/>
<defs>
<linearGradient id="paint0_linear_10_53" x1="53.067" y1="10.0351" x2="189.621" y2="279.551" gradientUnits="userSpaceOnUse">
<stop stop-color="#57EEE0"/>
<stop offset="0.0848658" stop-color="#5ACCDD"/>
<stop offset="0.275361" stop-color="#00C0E8"/>
<stop offset="0.582038" stop-color="#45AADE"/>
<stop offset="0.939783" stop-color="#7C3AED"/>
</linearGradient>
<linearGradient id="paint1_linear_10_53" x1="312.344" y1="-13.5791" x2="367.562" y2="60.8012" gradientUnits="userSpaceOnUse">
<stop offset="0.175338" stop-color="#F59E0B"/>
<stop offset="0.414508" stop-color="#EC4899"/>
<stop offset="0.619604" stop-color="#BD42BC"/>
<stop offset="0.913826" stop-color="#7C3AED"/>
</linearGradient>
</defs>
</svg>
